<?xml version="1.0" encoding="utf-8"?>
<!-- Generator: Adobe Illustrator 15.0.0, SVG Export Plug-In . SVG Version: 6.00 Build 0)  -->
<!DOCTYPE svg PUBLIC "-//W3C//DTD SVG 1.1//EN" "http://www.w3.org/Graphics/SVG/1.1/DTD/svg11.dtd">
<svg version="1.1" id="Layer_1" xmlns:sketch="http://www.bohemiancoding.com/sketch/ns"
	 xmlns="http://www.w3.org/2000/svg" xmlns:xlink="http://www.w3.org/1999/xlink" x="0px" y="0px" width="270.922px"
	 height="26.576px" viewBox="-1.063 -1.395 270.922 26.576" enable-background="new -1.063 -1.395 270.922 26.576"
	 xml:space="preserve">
<title>banner</title>
<desc>Created with Sketch.</desc>
<g id="Page-1" sketch:type="MSPage">
	<g id="_x30_3_x5F_Policies_x5F_Rules_x5F_Main" transform="translate(-18.000000, -13.000000)" sketch:type="MSArtboardGroup">
		<g id="primary-nav" sketch:type="MSLayerGroup">
			<g id="banner" transform="translate(18.000000, 13.000000)">
				<g id="Trend-ball" transform="translate(0.500000, 0.000000)">
					<path id="Fill-12" sketch:type="MSShapeGroup" fill="#FFFFFF" d="M24.15,11.637c0,6.805-5.551,12.356-12.357,12.356
						c-6.806,0-12.356-5.552-12.356-12.356c0-6.806,5.551-12.356,12.356-12.356C18.599-0.72,24.15,4.831,24.15,11.637z"/>
					<g id="Fill-19">
						<g sketch:type="MSShapeGroup">
							<path id="path-1" fill="none" d="M21.144,3.425c0.375,0.379,0.724,0.798,0.973,1.269c1.059,1.998,0.352,5.109-2.006,8.301
								C16.35,18.087,9.575,21.61,5.027,20.836c-1.049-0.178-1.926-0.534-2.517-1.133c-0.32-0.324-0.618-0.681-0.844-1.078
								c-0.983-1.717-0.612-4.312,1.06-7.046l-1.36,0.024l0.381-0.888C2.716,10.42,6.009,9.11,6.938,7.758h1.101l-1.228,2.916H8.88
								l-0.464,0.845l-1.999,0.066l-1.456,3.29c-0.491,1.819,0.265,3.984,3.394,3.404c3.356-0.62,7.251-3.082,9.646-6.324
								c3.066-4.151,2.543-8.05-1.162-8.68c-1.853-0.315-4.16,0.203-6.509,1.388c2.736-1.817,5.798-2.752,8.356-2.317
								C19.702,2.518,20.568,2.844,21.144,3.425"/>
						</g>
						<g>
							<path id="path-1_1_" fill="#AA0000" d="M21.144,3.425c0.375,0.379,0.724,0.798,0.973,1.269
								c1.059,1.998,0.352,5.109-2.006,8.301C16.35,18.087,9.575,21.61,5.027,20.836c-1.049-0.178-1.926-0.534-2.517-1.133
								c-0.32-0.324-0.618-0.681-0.844-1.078c-0.983-1.717-0.612-4.312,1.06-7.046l-1.36,0.024l0.381-0.888
								C2.716,10.42,6.009,9.11,6.938,7.758h1.101l-1.228,2.916H8.88l-0.464,0.845l-1.999,0.066l-1.456,3.29
								c-0.491,1.819,0.265,3.984,3.394,3.404c3.356-0.62,7.251-3.082,9.646-6.324c3.066-4.151,2.543-8.05-1.162-8.68
								c-1.853-0.315-4.16,0.203-6.509,1.388c2.736-1.817,5.798-2.752,8.356-2.317C19.702,2.518,20.568,2.844,21.144,3.425"/>
						</g>
					</g>
				</g>
			</g>
		</g>
	</g>
</g>
<g>
	<path fill="#FFFFFF" d="M35.537,17.819V6.155h1.75v11.664H35.537z"/>
	<path fill="#FFFFFF" d="M45.469,17.819V12.87c0-1.766-0.667-2.399-1.799-2.399c-1.15,0-1.8,0.816-1.8,2.233v5.115h-1.716V9.071
		h1.716v0.833c0.434-0.633,1.3-1.017,2.2-1.017c2.033,0,3.116,1.333,3.116,3.916v5.016H45.469z"/>
	<path fill="#FFFFFF" d="M53.753,17.603c-0.417,0.233-1,0.4-1.683,0.4c-1.216,0-1.966-0.75-1.966-2.316v-5.049h-1.25V9.071h1.25
		V6.572l1.683-0.9v3.399h2.166v1.566h-2.166v4.749c0,0.816,0.267,1.05,0.9,1.05c0.45,0,0.95-0.167,1.266-0.351L53.753,17.603z"/>
	<path fill="#FFFFFF" d="M63.003,14.054h-5.782c0.183,1.683,1.133,2.399,2.2,2.399c0.733,0,1.316-0.267,1.899-0.7l1.016,1.1
		c-0.766,0.733-1.683,1.15-3.016,1.15c-2.05,0-3.783-1.649-3.783-4.549c0-2.966,1.566-4.566,3.833-4.566
		c2.483,0,3.683,2.016,3.683,4.382C63.053,13.587,63.02,13.87,63.003,14.054z M59.254,10.438c-1.149,0-1.85,0.8-2,2.2h4.066
		C61.237,11.438,60.67,10.438,59.254,10.438z"/>
	<path fill="#FFFFFF" d="M69.938,10.888c-0.367-0.2-0.75-0.316-1.316-0.316c-1.083,0-1.716,0.766-1.716,2.249v4.999h-1.716V9.071
		h1.716v0.833c0.4-0.583,1.133-1.017,2-1.017c0.7,0,1.133,0.133,1.483,0.367L69.938,10.888z"/>
	<path fill="#FFFFFF" d="M75.905,18.003c-1.7,0-3.166-0.733-4.149-1.883l1.25-1.217c0.783,0.85,1.933,1.383,3.033,1.383
		c1.633,0,2.416-0.566,2.416-1.699c0-0.899-0.683-1.35-2.633-1.933c-2.466-0.733-3.649-1.35-3.649-3.433
		c0-2.017,1.699-3.25,3.849-3.25c1.583,0,2.782,0.583,3.815,1.583l-1.233,1.25c-0.733-0.75-1.566-1.116-2.716-1.116
		c-1.366,0-1.949,0.667-1.949,1.45c0,0.816,0.533,1.216,2.549,1.816c2.299,0.7,3.732,1.433,3.732,3.516
		C80.22,16.569,78.887,18.003,75.905,18.003z"/>
	<path fill="#FFFFFF" d="M87.921,11.587c-0.717-0.733-1.35-1.066-2.133-1.066c-1.25,0-2.05,1.117-2.05,2.899
		c0,1.717,0.733,2.95,2.1,2.95c0.816,0,1.3-0.367,1.983-1.083l1.1,1.083c-0.683,0.866-1.549,1.633-3.132,1.633
		c-2.133,0-3.783-1.8-3.783-4.532c0-2.899,1.7-4.583,3.833-4.583c1.283,0,2.283,0.517,3.099,1.483L87.921,11.587z"/>
	<path fill="#FFFFFF" d="M95.855,17.819v-0.866c-0.6,0.6-1.45,1.05-2.399,1.05c-1.417,0-3.033-0.8-3.033-2.949
		c0-1.95,1.5-2.833,3.482-2.833c0.817,0,1.467,0.117,1.95,0.333v-0.649c0-0.95-0.583-1.483-1.649-1.483c-0.9,0-1.6,0.167-2.283,0.55
		l-0.667-1.3c0.833-0.517,1.766-0.783,2.999-0.783c1.95,0,3.283,0.95,3.283,2.933v5.999H95.855z M95.855,14.087
		c-0.466-0.233-1.066-0.383-2-0.383c-1.1,0-1.799,0.499-1.799,1.299c0,0.867,0.55,1.45,1.683,1.45c0.917,0,1.716-0.566,2.116-1.116
		V14.087z"/>
	<path fill="#FFFFFF" d="M105.321,17.819V12.87c0-1.766-0.667-2.399-1.799-2.399c-1.15,0-1.8,0.816-1.8,2.233v5.115h-1.716V9.071
		h1.716v0.833c0.434-0.633,1.3-1.017,2.2-1.017c2.033,0,3.116,1.333,3.116,3.916v5.016H105.321z"/>
	<path fill="#FFFFFF" d="M123.904,17.819h-1.767l-1.816-7.531c-0.1-0.4-0.283-1.267-0.333-1.55c-0.05,0.283-0.233,1.149-0.333,1.55
		l-1.899,7.531h-1.733L113.64,6.155h1.766l1.399,7.365c0.067,0.35,0.217,1.149,0.267,1.533c0.067-0.384,0.233-1.167,0.317-1.517
		l1.866-7.382h1.5l1.899,7.549c0.083,0.316,0.217,0.933,0.283,1.35c0.083-0.434,0.184-1.083,0.233-1.366l1.417-7.532h1.7
		L123.904,17.819z"/>
	<path fill="#FFFFFF" d="M134.688,14.054h-5.782c0.184,1.683,1.134,2.399,2.2,2.399c0.733,0,1.315-0.267,1.899-0.7l1.016,1.1
		c-0.766,0.733-1.682,1.15-3.016,1.15c-2.049,0-3.782-1.649-3.782-4.549c0-2.966,1.566-4.566,3.833-4.566
		c2.482,0,3.682,2.016,3.682,4.382C134.738,13.587,134.705,13.87,134.688,14.054z M130.939,10.438c-1.149,0-1.85,0.8-2,2.2h4.066
		C132.922,11.438,132.355,10.438,130.939,10.438z"/>
	<path fill="#FFFFFF" d="M140.772,18.003c-0.883,0-1.716-0.467-2.199-1v0.816h-1.699V6.556l1.699-0.883v4.232
		c0.634-0.583,1.366-1.017,2.283-1.017c1.883,0,3.365,1.366,3.365,4.699C144.222,16.586,142.589,18.003,140.772,18.003z
		 M140.539,10.471c-0.816,0-1.532,0.55-1.982,1.116v3.682c0.383,0.517,1.184,1.15,2.05,1.15c1.232,0,1.899-0.934,1.899-2.783
		C142.506,11.438,141.806,10.471,140.539,10.471z"/>
	<path fill="#FFFFFF" d="M154.624,18.003c-1.7,0-3.166-0.733-4.149-1.883l1.25-1.217c0.783,0.85,1.933,1.383,3.032,1.383
		c1.633,0,2.416-0.566,2.416-1.699c0-0.899-0.683-1.35-2.632-1.933c-2.467-0.733-3.649-1.35-3.649-3.433
		c0-2.017,1.699-3.25,3.849-3.25c1.583,0,2.783,0.583,3.816,1.583l-1.233,1.25c-0.733-0.75-1.566-1.116-2.716-1.116
		c-1.366,0-1.95,0.667-1.95,1.45c0,0.816,0.533,1.216,2.55,1.816c2.3,0.7,3.732,1.433,3.732,3.516
		C158.939,16.569,157.606,18.003,154.624,18.003z"/>
	<path fill="#FFFFFF" d="M168.189,14.054h-5.781c0.183,1.683,1.133,2.399,2.199,2.399c0.732,0,1.316-0.267,1.899-0.7l1.017,1.1
		c-0.767,0.733-1.684,1.15-3.017,1.15c-2.049,0-3.782-1.649-3.782-4.549c0-2.966,1.566-4.566,3.833-4.566
		c2.482,0,3.682,2.016,3.682,4.382C168.239,13.587,168.206,13.87,168.189,14.054z M164.44,10.438c-1.149,0-1.85,0.8-1.999,2.2h4.065
		C166.424,11.438,165.856,10.438,164.44,10.438z"/>
	<path fill="#FFFFFF" d="M175.873,11.587c-0.716-0.733-1.35-1.066-2.133-1.066c-1.249,0-2.049,1.117-2.049,2.899
		c0,1.717,0.732,2.95,2.1,2.95c0.816,0,1.299-0.367,1.982-1.083l1.1,1.083c-0.683,0.866-1.55,1.633-3.133,1.633
		c-2.133,0-3.782-1.8-3.782-4.532c0-2.899,1.7-4.583,3.833-4.583c1.282,0,2.282,0.517,3.099,1.483L175.873,11.587z"/>
	<path fill="#FFFFFF" d="M184.24,17.819v-0.833c-0.433,0.633-1.299,1.017-2.199,1.017c-2.032,0-3.115-1.333-3.115-3.916V9.071h1.716
		v4.949c0,1.766,0.666,2.399,1.8,2.399c1.149,0,1.799-0.816,1.799-2.233V9.071h1.717v8.748H184.24z"/>
	<path fill="#FFFFFF" d="M193.241,10.888c-0.367-0.2-0.75-0.316-1.316-0.316c-1.083,0-1.717,0.766-1.717,2.249v4.999h-1.716V9.071
		h1.716v0.833c0.4-0.583,1.133-1.017,2-1.017c0.699,0,1.133,0.133,1.482,0.367L193.241,10.888z"/>
	<path fill="#FFFFFF" d="M196.409,7.938c-0.616,0-1.116-0.5-1.116-1.1c0-0.617,0.5-1.117,1.116-1.117c0.601,0,1.1,0.5,1.1,1.117
		C197.509,7.438,197.01,7.938,196.409,7.938z M195.543,17.819V9.071h1.717v8.748H195.543z"/>
	<path fill="#FFFFFF" d="M204.058,17.603c-0.416,0.233-0.999,0.4-1.683,0.4c-1.216,0-1.966-0.75-1.966-2.316v-5.049h-1.25V9.071
		h1.25V6.572l1.683-0.9v3.399h2.166v1.566h-2.166v4.749c0,0.816,0.267,1.05,0.899,1.05c0.45,0,0.95-0.167,1.267-0.351
		L204.058,17.603z"/>
	<path fill="#FFFFFF" d="M209.309,20.902h-1.816l1.267-3.25l-3.216-8.581h1.883l1.434,4.282c0.266,0.767,0.666,2.066,0.766,2.55
		c0.15-0.517,0.517-1.767,0.783-2.517l1.483-4.315h1.816L209.309,20.902z"/>
	<path fill="#FFFFFF" d="M227.392,17.819v-5.198h-5.365v5.198h-1.749V6.155h1.749v4.716h5.365V6.155h1.75v11.664H227.392z"/>
	<path fill="#FFFFFF" d="M234.977,20.902h-1.816l1.267-3.25l-3.216-8.581h1.883l1.434,4.282c0.266,0.767,0.666,2.066,0.766,2.55
		c0.15-0.517,0.517-1.767,0.783-2.517l1.483-4.315h1.816L234.977,20.902z"/>
	<path fill="#FFFFFF" d="M245.093,18.003c-0.883,0-1.716-0.467-2.199-1v0.816h-1.699V6.556l1.699-0.883v4.232
		c0.634-0.583,1.366-1.017,2.283-1.017c1.883,0,3.365,1.366,3.365,4.699C248.542,16.586,246.909,18.003,245.093,18.003z
		 M244.859,10.471c-0.816,0-1.532,0.55-1.982,1.116v3.682c0.383,0.517,1.184,1.15,2.05,1.15c1.232,0,1.899-0.934,1.899-2.783
		C246.826,11.438,246.126,10.471,244.859,10.471z"/>
	<path fill="#FFFFFF" d="M255.444,10.888c-0.367-0.2-0.75-0.316-1.316-0.316c-1.083,0-1.717,0.766-1.717,2.249v4.999h-1.716V9.071
		h1.716v0.833c0.4-0.583,1.133-1.017,2-1.017c0.699,0,1.133,0.133,1.482,0.367L255.444,10.888z"/>
	<path fill="#FFFFFF" d="M258.611,7.938c-0.616,0-1.116-0.5-1.116-1.1c0-0.617,0.5-1.117,1.116-1.117c0.601,0,1.1,0.5,1.1,1.117
		C259.711,7.438,259.212,7.938,258.611,7.938z M257.745,17.819V9.071h1.716v8.748H257.745z"/>
	<path fill="#FFFFFF" d="M267.344,17.819v-0.833c-0.633,0.583-1.366,1.017-2.282,1.017c-1.883,0-3.366-1.366-3.366-4.699
		c0-2.999,1.633-4.416,3.449-4.416c0.884,0,1.717,0.466,2.199,1V6.556l1.7-0.883v12.147H267.344z M267.361,11.621
		c-0.384-0.517-1.184-1.15-2.05-1.15c-1.233,0-1.899,0.933-1.899,2.783c0,2.199,0.699,3.166,1.966,3.166
		c0.816,0,1.533-0.55,1.983-1.116V11.621z"/>
</g>
</svg>
