<?xml version="1.0" encoding="UTF-8" standalone="no"?>
<svg width="1024px" height="1024px" viewBox="0 0 1024 1024" version="1.1" xmlns="http://www.w3.org/2000/svg" xmlns:xlink="http://www.w3.org/1999/xlink" xmlns:sketch="http://www.bohemiancoding.com/sketch/ns">
    <!-- Generator: Sketch 3.3.1 (12002) - http://www.bohemiancoding.com/sketch -->
    <title>iwsh_sprites</title>
    <desc>Created with Sketch.</desc>
    <defs></defs>
    <g id="Page-1" stroke="none" stroke-width="1" fill="none" fill-rule="evenodd" sketch:type="MSPage">
        <g id="iwsh_sprites" sketch:type="MSArtboardGroup">
            <rect id="rectangel-path" sketch:type="MSShapeGroup" x="0" y="0" width="50" height="50"></rect>
            <g id="icon-car" sketch:type="MSLayerGroup" transform="translate(13.480000, 13.000000)">
                <path d="M17.6,6.13333333 L7.2,6.13333333 C6.84055,6.13333333 6.55,6.4656 6.55,6.875 C6.55,7.28514167 6.84055,7.61666667 7.2,7.61666667 L17.6,7.61666667 C17.95945,7.61666667 18.25,7.28514167 18.25,6.875 C18.25,6.4656 17.95945,6.13333333 17.6,6.13333333 L17.6,6.13333333 Z M21.5,20.9666667 C21.5,21.7817583 20.7941,22.4589 20.08105,22.4589 L4.5831,22.4589 C3.87005,22.4589 3.29155,21.7988167 3.29155,20.983725 L3.29155,3.28904167 C3.29155,2.47395 3.8863,1.68333333 4.6,1.68333333 L20.2,1.68333333 C20.9137,1.68333333 21.5,2.35231667 21.5,3.16666667 L21.5,20.9666667 L21.5,20.9666667 Z M20.2,0.2 L4.6,0.2 C3.1739,0.2 2,1.66034167 2,3.28904167 L2,20.983725 C2,22.6131667 3.15635,23.9333333 4.5831,23.9333333 L20.08105,23.9333333 C21.5078,23.9333333 22.8,22.5953667 22.8,20.9666667 L22.8,3.16666667 C22.8,1.53796667 21.6261,0.2 20.2,0.2 L20.2,0.2 Z M17.6,15.0333333 L7.2,15.0333333 C6.84055,15.0333333 6.55,15.3656 6.55,15.775 C6.55,16.1851417 6.84055,16.5166667 7.2,16.5166667 L17.6,16.5166667 C17.95945,16.5166667 18.25,16.1851417 18.25,15.775 C18.25,15.3656 17.95945,15.0333333 17.6,15.0333333 L17.6,15.0333333 Z M17.6,10.5833333 L7.2,10.5833333 C6.84055,10.5833333 6.55,10.9156 6.55,11.325 C6.55,11.7351417 6.84055,12.0666667 7.2,12.0666667 L17.6,12.0666667 C17.95945,12.0666667 18.25,11.7351417 18.25,11.325 C18.25,10.9156 17.95945,10.5833333 17.6,10.5833333 L17.6,10.5833333 Z" id="Fill-218" fill="#555555" sketch:type="MSShapeGroup"></path>
                <path d="M0,0.266666677 L0,14.4820513 C0,15.9094051 0.694690909,17.0666667 1.55151515,17.0666667 L4.26666667,12.5435897 L6.98181818,17.0666667 C7.83864242,17.0666667 8.53333333,15.9094051 8.53333333,14.4820513 L8.53333333,0.266666677 C4.26666667,0.266666678 4.63828125,0.266666653 0,0.266666677 Z" id="Fill-205" stroke="#FFFFFF" stroke-width="2" fill="#E34E55" sketch:type="MSShapeGroup"></path>
            </g>
            <rect id="rectangel-path" sketch:type="MSShapeGroup" x="49.5" y="0" width="50" height="50"></rect>
            <g id="icon-ftp-control" sketch:type="MSLayerGroup" transform="translate(60.500000, 13.000000)">
                <path d="M19.1882353,19.2705882 L7.08235294,19.2705882 C7.08235294,19.2705882 1.86212353,18.7353353 1.89411765,14.0823529 C1.91227647,11.4571059 4.21844706,9.05235882 7.08235294,8.89411765 C7.08235294,5.31250588 9.37382353,1.97647059 13.1352941,1.97647059 C16.1038294,1.97647059 18.0840059,3.78889412 18.7887412,6.31210588 C23.0733588,6.12532941 25.9709882,9.51497647 26.1058824,12.3529412 C26.2874706,16.1688882 22.3020412,19.2705882 19.1882353,19.2705882 L19.1882353,19.2705882 Z M20.1108765,4.5948 C18.8414882,2.0223 16.1989471,0.247058824 13.1352941,0.247058824 C9.02880588,0.247058824 5.67288235,3.43090588 5.38147647,7.46302941 C2.36278824,8.32341176 0.164705882,10.9607647 0.164705882,14.0823529 C0.164705882,17.766 3.22576471,20.7673941 7.08235294,20.9801118 C7.08235294,20.9801118 19.0421,21 19.1882353,21 C23.7253471,21 27.8352941,17.3224059 27.8352941,12.7852941 C27.8352941,8.41334118 24.4188412,4.84988824 20.1108765,4.5948 L20.1108765,4.5948 Z" id="Fill-84" fill="#555555" sketch:type="MSShapeGroup"></path>
                <rect id="Rectangle-82" fill="#FFFFFF" sketch:type="MSShapeGroup" x="11.5294118" y="13.8352941" width="4.61176471" height="8.56470588"></rect>
                <path d="M19.4363595,12.0166147 L14.5367545,6.37875166 C14.3885383,6.23053543 14.193034,6.16701419 13.9996471,6.17760107 C13.806966,6.16701419 13.6114617,6.23053543 13.4632455,6.37875166 L8.56364047,12.0166147 C8.28697018,12.2954024 8.28697018,12.7456974 8.56364047,13.0230735 C8.84031076,13.3011553 9.2891942,13.3011553 9.5651587,13.0230735 L13.3051482,8.72056808 L13.3051482,23.9411765 L14.7167313,23.9411765 L14.7167313,8.74527078 L18.4348413,13.0230735 C18.7108058,13.3011553 19.1596892,13.3011553 19.4363595,13.0230735 C19.7130298,12.7456974 19.7130298,12.2954024 19.4363595,12.0166147 Z" id="Fill-194" fill="#E34E55" sketch:type="MSShapeGroup"></path>
            </g>
            <rect id="rectangel-path" sketch:type="MSShapeGroup" x="99.5" y="0" width="50" height="50"></rect>
            <g id="icon-bandwidth" sketch:type="MSLayerGroup" transform="translate(112.500000, 13.000000)">
                <path d="M10.6831276,18.6584362 C10.6831276,19.382716 11.2757202,19.9753086 12,19.9753086 C12.7242798,19.9753086 13.3168724,19.382716 13.3168724,18.6584362 C13.3168724,17.9341564 12.7242798,17.3415638 12,17.3415638 C11.2757202,17.3415638 10.6831276,17.9341564 10.6831276,18.6584362 L10.6831276,18.6584362 Z M10.6831276,0.222222222 L10.6831276,5.48971193 L13.3168724,5.48971193 L13.3168724,2.96131687 C17.78107,3.60658436 21.218107,7.4255144 21.218107,12.0740741 C21.218107,17.1703704 17.0962963,21.2921811 12,21.2921811 C6.9037037,21.2921811 2.781893,17.1703704 2.781893,12.0740741 C2.781893,9.8617284 3.55884774,7.83374486 4.86255144,6.25349794 L12,13.3909465 L13.8567901,11.5341564 L4.90205761,2.57942387 L4.90205761,2.60576132 C2.018107,4.7654321 0.148148148,8.18930041 0.148148148,12.0740741 C0.148148148,18.61893 5.44197531,23.9259259 12,23.9259259 C18.544856,23.9259259 23.8518519,18.61893 23.8518519,12.0740741 C23.8518519,5.52921811 18.544856,0.222222222 12,0.222222222 L10.6831276,0.222222222 L10.6831276,0.222222222 Z M19.9012346,12.0740741 C19.9012346,11.3497942 19.308642,10.7572016 18.5843621,10.7572016 C17.8600823,10.7572016 17.2674897,11.3497942 17.2674897,12.0740741 C17.2674897,12.7983539 17.8600823,13.3909465 18.5843621,13.3909465 C19.308642,13.3909465 19.9012346,12.7983539 19.9012346,12.0740741 L19.9012346,12.0740741 Z M4.09876543,12.0740741 C4.09876543,12.7983539 4.69135802,13.3909465 5.41563786,13.3909465 C6.1399177,13.3909465 6.73251029,12.7983539 6.73251029,12.0740741 C6.73251029,11.3497942 6.1399177,10.7572016 5.41563786,10.7572016 C4.69135802,10.7572016 4.09876543,11.3497942 4.09876543,12.0740741 L4.09876543,12.0740741 Z" id="icon-bandwidth-control" stroke="#FFFFFF" fill="#555555" sketch:type="MSShapeGroup"></path>
                <path d="M4.83253542,5.42512801 C4.83253542,5.42512801 5.01165422,5.09334433 5.24654586,4.80210142 C5.4814375,4.5108585 5.86957245,4.38809097 5.86957245,4.38809097 L14.8148148,13.3333333 L13.7777778,14.3703704 L4.83253542,5.42512801 L4.83253542,5.42512801 Z" id="Rectangle-82-Copy" fill="#E34E55" sketch:type="MSShapeGroup"></path>
            </g>
            <rect id="rectangel-path" sketch:type="MSShapeGroup" x="149" y="0" width="50" height="50"></rect>
            <g id="icon-ssl-inspection" sketch:type="MSLayerGroup" transform="translate(161.520000, 13.000000)">
                <path d="M16.6956522,22.1086957 C13.4685913,22.1086957 10.8521739,19.4922783 10.8521739,16.2652174 C10.8521739,13.0381565 13.4685913,10.4217391 16.6956522,10.4217391 C19.8131478,10.4217391 22.5391304,13.1477217 22.5391304,16.2652174 C22.5391304,19.4922783 19.922713,22.1086957 16.6956522,22.1086957 L16.6956522,22.1086957 Z M12.3130435,6.03913043 C12.3130435,3.6192 14.2757217,1.65652174 16.6956522,1.65652174 C19.1155826,1.65652174 21.0782609,3.6192 21.0782609,6.03913043 L21.0782609,10.4319652 C19.8562435,9.51234783 18.3427826,8.96086957 16.6956522,8.96086957 C15.0492522,8.96086957 13.5350609,9.51234783 12.3130435,10.4319652 L12.3130435,6.03913043 L12.3130435,6.03913043 Z M22.5391304,11.896487 L22.5391304,6.03913043 C22.5391304,2.81206957 19.922713,0.195652174 16.6956522,0.195652174 C13.4685913,0.195652174 10.8521739,2.81206957 10.8521739,6.03913043 L10.8521739,11.896487 C9.93913043,13.1155826 9.39130435,14.6246609 9.39130435,16.2652174 C9.39130435,20.2994087 12.6621913,23.5695652 16.6956522,23.5695652 C20.729113,23.5695652 24,20.2994087 24,16.2652174 C24,14.6246609 23.4521739,13.1155826 22.5391304,11.896487 L22.5391304,11.896487 Z M16.6956522,14.8043478 C16.2917217,14.8043478 15.9652174,15.1315826 15.9652174,15.5347826 L15.9652174,18.4565217 C15.9652174,18.8604522 16.2917217,19.1869565 16.6956522,19.1869565 C17.0995826,19.1869565 17.426087,18.8604522 17.426087,18.4565217 L17.426087,15.5347826 C17.426087,15.1315826 17.0995826,14.8043478 16.6956522,14.8043478 L16.6956522,14.8043478 Z" id="Fill-174" fill="#555555" sketch:type="MSShapeGroup"></path>
                <path d="M16.6956522,14.8043478 C16.2917217,14.8043478 15.9652174,15.1315826 15.9652174,15.5347826 L15.9652174,18.4565217 C15.9652174,18.8604522 16.2917217,19.1869565 16.6956522,19.1869565 C17.0995826,19.1869565 17.426087,18.8604522 17.426087,18.4565217 L17.426087,15.5347826 C17.426087,15.1315826 17.0995826,14.8043478 16.6956522,14.8043478 L16.6956522,14.8043478 Z" id="Fill-174-Copy" fill="#E34E55" sketch:type="MSShapeGroup"></path>
                <g id="Fill-117-Copy-+-Fill-117-+-Fill-117-Copy-+-Fill-117-Copy" transform="translate(0.000000, 7.565217)" sketch:type="MSShapeGroup">
                    <g id="Fill-117-Copy-+-Fill-117" fill="#E34E55">
                        <path d="M10.4760213,7.24711519 C10.3374447,7.10993362 9.90450896,7.14574034 9.76546731,7.28338692 L9.76546731,8.56498825 L7.9053783,8.56498825 L6.26152463,6.31474557 L5.67652664,7.07319686 L7.44035604,9.45271573 L9.76546731,9.45271573 L9.76546731,10.7882596 C9.90450896,10.9254412 10.3374447,10.8645233 10.4760213,10.7268767 L12.4491107,9.23555034 C12.5876874,9.09836877 12.5876874,8.87608814 12.4491107,8.73844155 L10.4760213,7.24711519 L10.4760213,7.24711519 Z M9.76546731,2.51969897 L9.76546731,3.76967878 C9.90450896,3.90639532 10.3374447,3.96359306 10.4760213,3.82687652 L12.4491107,2.33555015 C12.5876874,2.19790357 12.5876874,1.97515791 12.4491107,1.83797634 L10.4760213,0.346184957 C10.3374447,0.209003393 9.90450896,0.12994961 9.76546731,0.267131174 L9.76546731,1.58965446 L7.44035604,1.58965446 L2.32511126,8.56498825 L0.465022253,8.56498825 C0.207864947,8.56498825 0,8.73844155 0,8.99280872 C0,9.24671087 0.207864947,9.49503276 0.465022253,9.49503276 L2.79013352,9.49503276 L7.9053783,2.51969897 L9.76546731,2.51969897 L9.76546731,2.51969897 Z M0.465022253,2.51969897 L2.32511126,2.51969897 L3.95640933,4.75320085 L4.54140732,3.99474955 C4.54140732,3.99474955 2.90824917,1.73985665 2.79013352,1.58965446 L0.465022253,1.58965446 C0.207864947,1.58965446 0,1.83797634 0,2.09187849 C0,2.34624567 0.207864947,2.51969897 0.465022253,2.51969897 L0.465022253,2.51969897 Z" id="Fill-117-Copy" stroke="#FFFFFF" stroke-width="5"></path>
                        <path d="M10.4760213,7.24711519 C10.3374447,7.10993362 9.90450896,7.14574034 9.76546731,7.28338692 L9.76546731,8.56498825 L7.9053783,8.56498825 L6.26152463,6.31474557 L5.67652664,7.07319686 L7.44035604,9.45271573 L9.76546731,9.45271573 L9.76546731,10.7882596 C9.90450896,10.9254412 10.3374447,10.8645233 10.4760213,10.7268767 L12.4491107,9.23555034 C12.5876874,9.09836877 12.5876874,8.87608814 12.4491107,8.73844155 L10.4760213,7.24711519 L10.4760213,7.24711519 Z M9.76546731,2.51969897 L9.76546731,3.76967878 C9.90450896,3.90639532 10.3374447,3.96359306 10.4760213,3.82687652 L12.4491107,2.33555015 C12.5876874,2.19790357 12.5876874,1.97515791 12.4491107,1.83797634 L10.4760213,0.346184957 C10.3374447,0.209003393 9.90450896,0.12994961 9.76546731,0.267131174 L9.76546731,1.58965446 L7.44035604,1.58965446 L2.32511126,8.56498825 L0.465022253,8.56498825 C0.207864947,8.56498825 0,8.73844155 0,8.99280872 C0,9.24671087 0.207864947,9.49503276 0.465022253,9.49503276 L2.79013352,9.49503276 L7.9053783,2.51969897 L9.76546731,2.51969897 L9.76546731,2.51969897 Z M0.465022253,2.51969897 L2.32511126,2.51969897 L3.95640933,4.75320085 L4.54140732,3.99474955 C4.54140732,3.99474955 2.90824917,1.73985665 2.79013352,1.58965446 L0.465022253,1.58965446 C0.207864947,1.58965446 0,1.83797634 0,2.09187849 C0,2.34624567 0.207864947,2.51969897 0.465022253,2.51969897 L0.465022253,2.51969897 Z" id="Fill-117"></path>
                    </g>
                    <g id="Fill-117-Copy-+-Fill-117-Copy" transform="translate(0.000000, 1.565217)" fill="#555555">
                        <path d="M10.4760213,5.6818978 C10.3374447,5.54471623 9.90450896,5.58052294 9.76546731,5.71816953 L9.76546731,6.99977086 L7.9053783,6.99977086 L6.26152463,4.74952818 L5.67652664,5.50797947 L7.44035604,7.88749834 L9.76546731,7.88749834 L9.76546731,9.22304225 C9.90450896,9.36022381 10.3374447,9.2993059 10.4760213,9.16165931 L12.4491107,7.67033295 C12.5876874,7.53315138 12.5876874,7.31087075 12.4491107,7.17322416 L10.4760213,5.6818978 L10.4760213,5.6818978 Z M0.465022253,0.954481575 L2.32511126,0.954481575 L3.95640933,3.18798345 L4.54140732,2.42953216 C4.54140732,2.42953216 2.90824917,0.174639257 2.79013352,0.0244370696 L0.465022253,0.0244370696 C0.207864947,0.0244370696 0,0.272758953 0,0.526661103 C0,0.781028275 0.207864947,0.954481575 0.465022253,0.954481575 L0.465022253,0.954481575 Z" id="Fill-117"></path>
                    </g>
                </g>
            </g>
            <rect id="rectangel-path" sketch:type="MSShapeGroup" x="199" y="0" width="50" height="50"></rect>
            <g id="icon-securitytemplate" sketch:type="MSLayerGroup" transform="translate(212.000000, 13.000000)">
                <path d="M8.58412698,0 L0.0264126984,3.88987013 L0.0264126984,9.72467532 C0.0264126984,15.1218701 3.67770413,20.1689766 8.58412698,21.3942857 C13.4905498,20.1689766 17.1418413,15.1218701 17.1418413,9.72467532 L17.1418413,3.88987013 L8.58412698,0 L8.58412698,0 Z" id="icon-security-2" stroke="#555555" stroke-width="2" fill="#FFFFFF" sketch:type="MSShapeGroup"></path>
                <path d="M1.19785717,13.5721677 C0.90587301,12.7331324 0.763458538,12.2160208 0.674761904,11.4448363 C0.482599206,9.77405258 0.531284722,4.23196429 0.531284722,4.23196429 L4.67348654,2.36779266 L8.54388867,0.575843254 L8.47063497,10.4760268 C8.47063497,10.4760268 8.54388843,12.9656944 8.62475203,20.8176687 C7.2887386,20.8176687 5.19116572,19.5319196 3.09369048,17.1118948 C1.89452782,15.7283251 1.48984133,14.4112029 1.19785717,13.5721677 Z" id="Rectangle-156" fill="#D8D8D8" sketch:type="MSShapeGroup"></path>
                <g id="Group" transform="translate(8.557714, 7.701943)" sketch:type="MSShapeGroup">
                    <ellipse id="Oval-1-Copy-2" fill="#FFFFFF" cx="7.52058721" cy="7.61407757" rx="7.18425397" ry="6.93403671"></ellipse>
                    <ellipse id="Oval-5" fill="#FFFFFF" cx="7.52058721" cy="7.61407757" rx="5.87802597" ry="5.67330277"></ellipse>
                    <path d="M9.85205853,5.02665966 C9.66676323,4.92211752 9.43040534,4.98558953 9.32363812,5.16107098 L6.84981049,9.29795272 L5.4657049,8.06584895 C5.31948022,7.91650304 5.0746119,7.90903575 4.91871628,8.05091436 C4.76282065,8.18905933 4.75469706,8.42801279 4.90092174,8.5773587 L6.66954409,10.1529581 C6.81538193,10.302304 7.06025025,10.3097713 7.21614587,10.1678927 C7.26334008,10.1268225 9.99364116,5.53443576 9.99364116,5.53443576 C10.1004084,5.35895431 10.036967,5.12746815 9.85205853,5.02665966 L9.85205853,5.02665966 Z M7.52058721,12.8411845 C4.52955747,12.8411845 2.10485824,10.5001873 2.10485824,7.61407757 C2.10485824,4.72796784 4.52955747,2.38697067 7.52058721,2.38697067 C10.5116169,2.38697067 12.9363162,4.72796784 12.9363162,7.61407757 C12.9363162,10.5001873 10.5116169,12.8411845 7.52058721,12.8411845 L7.52058721,12.8411845 Z M7.52058721,1.64024112 C4.10248856,1.64024112 1.33118268,4.31353293 1.33118268,7.61407757 C1.33118268,10.9146222 4.10248856,13.587914 7.52058721,13.587914 C10.9386859,13.587914 13.7099917,10.9146222 13.7099917,7.61407757 C13.7099917,4.31353293 10.9386859,1.64024112 7.52058721,1.64024112 L7.52058721,1.64024112 Z" id="Fill-22-Copy-3" fill="#555555"></path>
                    <path d="M10.2815467,4.4185195 C10.0741405,4.30150256 9.80957851,4.37254856 9.69007096,4.56896986 L6.92104635,9.19949757 L5.37177816,7.82036928 C5.20810478,7.65320221 4.93401681,7.64484386 4.75951846,7.80365257 C4.58502012,7.95828211 4.57592715,8.22574941 4.73960054,8.39291648 L6.71926911,10.156529 C6.88250949,10.3236961 7.15659746,10.3320544 7.33109581,10.1732457 C7.38392161,10.1272748 10.4400241,4.98688752 10.4400241,4.98688752 C10.5595317,4.79046622 10.48852,4.53135727 10.2815467,4.4185195 L10.2815467,4.4185195 Z" id="Fill-22-Copy-2" fill="#0B9F28"></path>
                </g>
            </g>
            <rect id="rectangel-path" sketch:type="MSShapeGroup" x="249" y="0" width="50" height="50"></rect>
            <g id="icon-objects" sketch:type="MSLayerGroup" transform="translate(262.000000, 14.263158)">
                <path d="M12,19.7368421 C11.172,19.7368421 10.5,19.0648421 10.5,18.2368421 C10.5,17.4088421 11.172,16.7368421 12,16.7368421 C12.828,16.7368421 13.5,17.4088421 13.5,18.2368421 C13.5,19.0648421 12.828,19.7368421 12,19.7368421 L12,19.7368421 Z M12,15.2368421 C10.34325,15.2368421 9,16.5800921 9,18.2368421 C9,19.8935921 10.34325,21.2368421 12,21.2368421 C13.65675,21.2368421 15,19.8935921 15,18.2368421 C15,16.5800921 13.65675,15.2368421 12,15.2368421 L12,15.2368421 Z M12,4.73684211 C11.172,4.73684211 10.5,4.06484211 10.5,3.23684211 C10.5,2.40884211 11.172,1.73684211 12,1.73684211 C12.828,1.73684211 13.5,2.40884211 13.5,3.23684211 C13.5,4.06484211 12.828,4.73684211 12,4.73684211 L12,4.73684211 Z M12,0.236842105 C10.34325,0.236842105 9,1.58009211 9,3.23684211 C9,4.89359211 10.34325,6.23684211 12,6.23684211 C13.65675,6.23684211 15,4.89359211 15,3.23684211 C15,1.58009211 13.65675,0.236842105 12,0.236842105 L12,0.236842105 Z M3,4.73684211 C2.172,4.73684211 1.5,4.06484211 1.5,3.23684211 C1.5,2.40884211 2.172,1.73684211 3,1.73684211 C3.828,1.73684211 4.5,2.40884211 4.5,3.23684211 C4.5,4.06484211 3.828,4.73684211 3,4.73684211 L3,4.73684211 Z M3,0.236842105 C1.34325,0.236842105 0,1.58009211 0,3.23684211 C0,4.89359211 1.34325,6.23684211 3,6.23684211 C4.65675,6.23684211 6,4.89359211 6,3.23684211 C6,1.58009211 4.65675,0.236842105 3,0.236842105 L3,0.236842105 Z M21,19.7368421 C20.172,19.7368421 19.5,19.0648421 19.5,18.2368421 C19.5,17.4088421 20.172,16.7368421 21,16.7368421 C21.828,16.7368421 22.5,17.4088421 22.5,18.2368421 C22.5,19.0648421 21.828,19.7368421 21,19.7368421 L21,19.7368421 Z M21,15.2368421 C19.34325,15.2368421 18,16.5800921 18,18.2368421 C18,19.8935921 19.34325,21.2368421 21,21.2368421 C22.65675,21.2368421 24,19.8935921 24,18.2368421 C24,16.5800921 22.65675,15.2368421 21,15.2368421 L21,15.2368421 Z M3,19.7368421 C2.172,19.7368421 1.5,19.0648421 1.5,18.2368421 C1.5,17.4088421 2.172,16.7368421 3,16.7368421 C3.828,16.7368421 4.5,17.4088421 4.5,18.2368421 C4.5,19.0648421 3.828,19.7368421 3,19.7368421 L3,19.7368421 Z M3,15.2368421 C1.34325,15.2368421 0,16.5800921 0,18.2368421 C0,19.8935921 1.34325,21.2368421 3,21.2368421 C4.65675,21.2368421 6,19.8935921 6,18.2368421 C6,16.5800921 4.65675,15.2368421 3,15.2368421 L3,15.2368421 Z M21,1.73684211 C21.828,1.73684211 22.5,2.40884211 22.5,3.23684211 C22.5,4.06484211 21.828,4.73684211 21,4.73684211 C20.172,4.73684211 19.5,4.06484211 19.5,3.23684211 C19.5,2.40884211 20.172,1.73684211 21,1.73684211 L21,1.73684211 Z M21,6.23684211 C22.65675,6.23684211 24,4.89359211 24,3.23684211 C24,1.58009211 22.65675,0.236842105 21,0.236842105 C19.34325,0.236842105 18,1.58009211 18,3.23684211 C18,4.89359211 19.34325,6.23684211 21,6.23684211 L21,6.23684211 Z" id="Fill-61" fill="#555555" sketch:type="MSShapeGroup"></path>
                <path d="M12,12.2368421 C11.172,12.2368421 10.5,11.5648421 10.5,10.7368421 C10.5,9.90884211 11.172,9.23684211 12,9.23684211 C12.828,9.23684211 13.5,9.90884211 13.5,10.7368421 C13.5,11.5648421 12.828,12.2368421 12,12.2368421 L12,12.2368421 Z M12,7.73684211 C10.34325,7.73684211 9,9.08009211 9,10.7368421 C9,12.3935921 10.34325,13.7368421 12,13.7368421 C13.65675,13.7368421 15,12.3935921 15,10.7368421 C15,9.08009211 13.65675,7.73684211 12,7.73684211 L12,7.73684211 Z M21,12.2368421 C20.172,12.2368421 19.5,11.5648421 19.5,10.7368421 C19.5,9.90884211 20.172,9.23684211 21,9.23684211 C21.828,9.23684211 22.5,9.90884211 22.5,10.7368421 C22.5,11.5648421 21.828,12.2368421 21,12.2368421 L21,12.2368421 Z M21,7.73684211 C19.34325,7.73684211 18,9.08009211 18,10.7368421 C18,12.3935921 19.34325,13.7368421 21,13.7368421 C22.65675,13.7368421 24,12.3935921 24,10.7368421 C24,9.08009211 22.65675,7.73684211 21,7.73684211 L21,7.73684211 Z M3,12.2368421 C2.172,12.2368421 1.5,11.5648421 1.5,10.7368421 C1.5,9.90884211 2.172,9.23684211 3,9.23684211 C3.828,9.23684211 4.5,9.90884211 4.5,10.7368421 C4.5,11.5648421 3.828,12.2368421 3,12.2368421 L3,12.2368421 Z M3,7.73684211 C1.34325,7.73684211 0,9.08009211 0,10.7368421 C0,12.3935921 1.34325,13.7368421 3,13.7368421 C4.65675,13.7368421 6,12.3935921 6,10.7368421 C6,9.08009211 4.65675,7.73684211 3,7.73684211 L3,7.73684211 Z" id="Fill-61-Copy" fill="#E34E55" sketch:type="MSShapeGroup"></path>
            </g>
            <rect id="rectangel-path" sketch:type="MSShapeGroup" x="298.5" y="0" width="50" height="50"></rect>
            <g id="icon-ab-list" sketch:type="MSLayerGroup" transform="translate(311.500000, 13.000000)">
                <path d="M15.8051408,6.14330875 L5.46929352,6.14330875 C5.1120608,6.14330875 4.82330306,6.47352582 4.82330306,6.88040042 C4.82330306,7.28801212 5.1120608,7.6174921 5.46929352,7.6174921 L15.8051408,7.6174921 C16.1623736,7.6174921 16.4511313,7.28801212 16.4511313,6.88040042 C16.4511313,6.47352582 16.1623736,6.14330875 15.8051408,6.14330875 L15.8051408,6.14330875 Z M19.6810836,20.8851423 C19.6810836,21.695206 18.9795379,22.3681707 18.2708864,22.3681707 L2.86853594,22.3681707 C2.15988441,22.3681707 1.5849529,21.7121591 1.5849529,20.9020954 L1.5849529,3.31656217 C1.5849529,2.50649842 2.17603417,1.72075869 2.88533169,1.72075869 L18.3891027,1.72075869 C19.0984002,1.72075869 19.6810836,2.38561538 19.6810836,3.19494204 L19.6810836,20.8851423 L19.6810836,20.8851423 Z M18.3891027,0.246575342 L2.88533169,0.246575342 C1.46802863,0.246575342 0.301369863,1.69790885 0.301369863,3.31656217 L0.301369863,20.9020954 C0.301369863,22.5214858 1.45058689,23.833509 2.86853594,23.833509 L18.2708864,23.833509 C19.6888355,23.833509 20.9730645,22.5037956 20.9730645,20.8851423 L20.9730645,3.19494204 C20.9730645,1.57628872 19.8064057,0.246575342 18.3891027,0.246575342 L18.3891027,0.246575342 Z M15.8051408,14.9884089 L5.46929352,14.9884089 C5.1120608,14.9884089 4.82330306,15.3186259 4.82330306,15.7255005 C4.82330306,16.1331122 5.1120608,16.4625922 5.46929352,16.4625922 L15.8051408,16.4625922 C16.1623736,16.4625922 16.4511313,16.1331122 16.4511313,15.7255005 C16.4511313,15.3186259 16.1623736,14.9884089 15.8051408,14.9884089 L15.8051408,14.9884089 Z M15.8051408,10.5658588 L5.46929352,10.5658588 C5.1120608,10.5658588 4.82330306,10.8960759 4.82330306,11.3029505 C4.82330306,11.7105622 5.1120608,12.0400421 5.46929352,12.0400421 L15.8051408,12.0400421 C16.1623736,12.0400421 16.4511313,11.7105622 16.4511313,11.3029505 C16.4511313,10.8960759 16.1623736,10.5658588 15.8051408,10.5658588 L15.8051408,10.5658588 Z" id="Fill-218" fill="#555555" sketch:type="MSShapeGroup"></path>
                <ellipse id="Oval-1" stroke="#FFFFFF" stroke-width="7" sketch:type="MSShapeGroup" cx="5.32876712" cy="18.5958904" rx="3" ry="3"></ellipse>
                <path d="M7.21220462,16.4302654 C7.06251712,16.3427654 6.87157962,16.3958904 6.78532962,16.5427654 L4.78689212,20.0052654 L3.66876712,18.9740154 C3.55064212,18.8490154 3.35282962,18.8427654 3.22689212,18.9615154 C3.10095462,19.0771404 3.09439212,19.2771404 3.21251712,19.4021404 L4.64126712,20.7208904 C4.75907962,20.8458904 4.95689212,20.8521404 5.08282962,20.7333904 C5.12095462,20.6990154 7.32657962,16.8552654 7.32657962,16.8552654 C7.41282962,16.7083904 7.36157962,16.5146404 7.21220462,16.4302654 L7.21220462,16.4302654 Z M5.32876712,22.9708904 C2.91251712,22.9708904 0.953767123,21.0115154 0.953767123,18.5958904 C0.953767123,16.1802654 2.91251712,14.2208904 5.32876712,14.2208904 C7.74501712,14.2208904 9.70376712,16.1802654 9.70376712,18.5958904 C9.70376712,21.0115154 7.74501712,22.9708904 5.32876712,22.9708904 L5.32876712,22.9708904 Z M5.32876712,13.5958904 C2.56751712,13.5958904 0.328767123,15.8333904 0.328767123,18.5958904 C0.328767123,21.3583904 2.56751712,23.5958904 5.32876712,23.5958904 C8.09001712,23.5958904 10.3287671,21.3583904 10.3287671,18.5958904 C10.3287671,15.8333904 8.09001712,13.5958904 5.32876712,13.5958904 L5.32876712,13.5958904 Z" id="Fill-22" fill="#555555" sketch:type="MSShapeGroup"></path>
                <path d="M7.89964678,15.2095698 C7.70370233,15.0950302 7.45376067,15.1645721 7.3408574,15.3568349 L4.72485586,19.8893286 L3.26120402,18.5393982 C3.10657562,18.3757703 2.84763442,18.3675889 2.68277928,18.5230354 C2.51792414,18.6743912 2.50933367,18.9361959 2.66396207,19.0998238 L4.53422932,20.8260985 C4.68844864,20.9897264 4.94738984,20.9979078 5.11224498,20.8424613 C5.1621515,20.7974636 8.04936634,15.7659048 8.04936634,15.7659048 C8.16226961,15.5736419 8.09518216,15.3200186 7.89964678,15.2095698 L7.89964678,15.2095698 Z" id="Fill-22-Copy" fill="#0B9F28" sketch:type="MSShapeGroup"></path>
                <ellipse id="Oval-1-Copy" stroke="#FFFFFF" stroke-width="7" sketch:type="MSShapeGroup" cx="18.8630137" cy="18.2191781" rx="3" ry="3"></ellipse>
                <path d="M18.1917808,22.5941781 C15.7755308,22.5941781 13.8167808,20.6348031 13.8167808,18.2191781 C13.8167808,15.8035531 15.7755308,13.8441781 18.1917808,13.8441781 C20.6080308,13.8441781 22.5667808,15.8035531 22.5667808,18.2191781 C22.5667808,20.6348031 20.6080308,22.5941781 18.1917808,22.5941781 L18.1917808,22.5941781 Z M18.1917808,13.2191781 C15.4302183,13.2191781 13.1917808,15.4566781 13.1917808,18.2191781 C13.1917808,20.9816781 15.4302183,23.2191781 18.1917808,23.2191781 C20.9533433,23.2191781 23.1917808,20.9816781 23.1917808,18.2191781 C23.1917808,15.4566781 20.9533433,13.2191781 18.1917808,13.2191781 L18.1917808,13.2191781 Z M20.0667808,17.9066781 L16.3167808,17.9066781 C16.1439683,17.9066781 16.0042808,18.0473031 16.0042808,18.2191781 C16.0042808,18.3910531 16.1439683,18.5316781 16.3167808,18.5316781 L20.0667808,18.5316781 C20.2395933,18.5316781 20.3792808,18.3910531 20.3792808,18.2191781 C20.3792808,18.0473031 20.2395933,17.9066781 20.0667808,17.9066781 L20.0667808,17.9066781 Z" id="Fill-24" fill="#555555" sketch:type="MSShapeGroup"></path>
                <path d="M20.9241683,17.1541096 L15.7813112,17.1541096 C15.5443112,17.1541096 15.3527397,17.6041096 15.3527397,18.1541096 C15.3527397,18.7041096 15.5443112,19.1541096 15.7813112,19.1541096 L20.9241683,19.1541096 C21.1611683,19.1541096 21.3527397,18.7041096 21.3527397,18.1541096 C21.3527397,17.6041096 21.1611683,17.1541096 20.9241683,17.1541096 L20.9241683,17.1541096 Z" id="Fill-24-Copy" fill="#E34E55" sketch:type="MSShapeGroup"></path>
            </g>
        </g>
    </g>
</svg>